<mxfile host="app.diagrams.net" modified="2023-05-11T16:48:49.480Z" agent="Mozilla/5.0 (Windows NT 10.0; Win64; x64) AppleWebKit/537.36 (KHTML, like Gecko) Chrome/113.0.0.0 Safari/537.36" etag="3ojgthH5N56jrZc-g4dJ" version="21.2.9" type="device">
  <diagram id="C5RBs43oDa-KdzZeNtuy" name="Page-1">
    <mxGraphModel dx="594" dy="1604" grid="1" gridSize="10" guides="1" tooltips="1" connect="1" arrows="1" fold="1" page="1" pageScale="1" pageWidth="827" pageHeight="1169" math="0" shadow="0">
      <root>
        <mxCell id="WIyWlLk6GJQsqaUBKTNV-0" />
        <mxCell id="WIyWlLk6GJQsqaUBKTNV-1" parent="WIyWlLk6GJQsqaUBKTNV-0" />
        <mxCell id="n34CAmfpiyMnHwQI43ut-0" value="&lt;b&gt;Use Case: Apply to hire info&lt;/b&gt;" style="text;html=1;resizable=0;autosize=1;align=center;verticalAlign=middle;points=[];fillColor=none;strokeColor=none;rounded=0;" parent="WIyWlLk6GJQsqaUBKTNV-1" vertex="1">
          <mxGeometry x="40" y="10" width="180" height="30" as="geometry" />
        </mxCell>
        <mxCell id="7pnBDtsKowcjeVla5i2d-3" value="" style="group" parent="WIyWlLk6GJQsqaUBKTNV-1" vertex="1" connectable="0">
          <mxGeometry x="40" y="60" width="200" height="150" as="geometry" />
        </mxCell>
        <mxCell id="7pnBDtsKowcjeVla5i2d-8" value="" style="group" parent="7pnBDtsKowcjeVla5i2d-3" vertex="1" connectable="0">
          <mxGeometry width="200" height="150" as="geometry" />
        </mxCell>
        <mxCell id="7pnBDtsKowcjeVla5i2d-0" value="&amp;lt;&amp;lt;boundary&amp;gt;&amp;gt;&lt;br&gt;ApplyHireInfoUI" style="swimlane;whiteSpace=wrap;html=1;swimlaneLine=1;startSize=40;" parent="7pnBDtsKowcjeVla5i2d-8" vertex="1">
          <mxGeometry width="200" height="130" as="geometry">
            <mxRectangle x="100" y="100" width="140" height="40" as="alternateBounds" />
          </mxGeometry>
        </mxCell>
        <mxCell id="7pnBDtsKowcjeVla5i2d-1" value="startInterface()&lt;br&gt;searchHireInfo()&lt;br&gt;selectHireInfoDetail()&lt;br&gt;createNewApplication()" style="text;html=1;align=left;verticalAlign=middle;resizable=0;points=[];autosize=1;strokeColor=none;fillColor=none;fontSize=11;" parent="7pnBDtsKowcjeVla5i2d-0" vertex="1">
          <mxGeometry y="60" width="140" height="70" as="geometry" />
        </mxCell>
        <mxCell id="7pnBDtsKowcjeVla5i2d-2" value="" style="endArrow=none;html=1;rounded=0;fontSize=11;" parent="7pnBDtsKowcjeVla5i2d-0" edge="1">
          <mxGeometry width="50" height="50" relative="1" as="geometry">
            <mxPoint y="60" as="sourcePoint" />
            <mxPoint x="200" y="60" as="targetPoint" />
          </mxGeometry>
        </mxCell>
        <mxCell id="7pnBDtsKowcjeVla5i2d-9" value="" style="group" parent="WIyWlLk6GJQsqaUBKTNV-1" vertex="1" connectable="0">
          <mxGeometry x="260" y="60" width="200" height="150" as="geometry" />
        </mxCell>
        <mxCell id="7pnBDtsKowcjeVla5i2d-10" value="" style="group" parent="7pnBDtsKowcjeVla5i2d-9" vertex="1" connectable="0">
          <mxGeometry width="200" height="150" as="geometry" />
        </mxCell>
        <mxCell id="7pnBDtsKowcjeVla5i2d-11" value="&amp;lt;&amp;lt;control&amp;gt;&amp;gt;&lt;br&gt;ApplyHireInfo" style="swimlane;whiteSpace=wrap;html=1;swimlaneLine=1;startSize=40;" parent="7pnBDtsKowcjeVla5i2d-10" vertex="1">
          <mxGeometry width="200" height="115" as="geometry">
            <mxRectangle x="100" y="100" width="140" height="40" as="alternateBounds" />
          </mxGeometry>
        </mxCell>
        <mxCell id="7pnBDtsKowcjeVla5i2d-12" value="sendSearchHireInfos()&lt;br style=&quot;border-color: var(--border-color); font-size: 12px;&quot;&gt;&lt;span style=&quot;font-size: 12px;&quot;&gt;sendSelectHireInfoDetail()&lt;/span&gt;&lt;br style=&quot;border-color: var(--border-color); font-size: 12px;&quot;&gt;&lt;span style=&quot;font-size: 12px;&quot;&gt;sendCreateNewApplication()&lt;/span&gt;" style="text;html=1;align=left;verticalAlign=middle;resizable=0;points=[];autosize=1;strokeColor=none;fillColor=none;fontSize=11;" parent="7pnBDtsKowcjeVla5i2d-11" vertex="1">
          <mxGeometry y="55" width="180" height="60" as="geometry" />
        </mxCell>
        <mxCell id="7pnBDtsKowcjeVla5i2d-13" value="" style="endArrow=none;html=1;rounded=0;fontSize=11;" parent="7pnBDtsKowcjeVla5i2d-11" edge="1">
          <mxGeometry width="50" height="50" relative="1" as="geometry">
            <mxPoint y="60" as="sourcePoint" />
            <mxPoint x="200" y="60" as="targetPoint" />
          </mxGeometry>
        </mxCell>
        <mxCell id="7pnBDtsKowcjeVla5i2d-19" value="" style="group" parent="WIyWlLk6GJQsqaUBKTNV-1" vertex="1" connectable="0">
          <mxGeometry x="40" y="200" width="200" height="300" as="geometry" />
        </mxCell>
        <mxCell id="7pnBDtsKowcjeVla5i2d-20" value="" style="group" parent="7pnBDtsKowcjeVla5i2d-19" vertex="1" connectable="0">
          <mxGeometry width="200" height="300.00000000000006" as="geometry" />
        </mxCell>
        <mxCell id="7pnBDtsKowcjeVla5i2d-21" value="&amp;lt;&amp;lt;entity&amp;gt;&amp;gt;&lt;br&gt;HireInfo" style="swimlane;whiteSpace=wrap;html=1;swimlaneLine=1;startSize=40;" parent="7pnBDtsKowcjeVla5i2d-20" vertex="1">
          <mxGeometry y="10" width="200" height="180" as="geometry">
            <mxRectangle x="100" y="100" width="140" height="40" as="alternateBounds" />
          </mxGeometry>
        </mxCell>
        <mxCell id="7pnBDtsKowcjeVla5i2d-22" value="getHireInfo()&lt;br&gt;getHireInfoDetails()&lt;br&gt;increaseApplicantNum()" style="text;html=1;align=left;verticalAlign=middle;resizable=0;points=[];autosize=1;strokeColor=none;fillColor=none;fontSize=11;" parent="7pnBDtsKowcjeVla5i2d-21" vertex="1">
          <mxGeometry y="120" width="140" height="50" as="geometry" />
        </mxCell>
        <mxCell id="7pnBDtsKowcjeVla5i2d-23" value="" style="endArrow=none;html=1;rounded=0;fontSize=11;" parent="7pnBDtsKowcjeVla5i2d-21" edge="1">
          <mxGeometry width="50" height="50" relative="1" as="geometry">
            <mxPoint y="110" as="sourcePoint" />
            <mxPoint x="200" y="110" as="targetPoint" />
          </mxGeometry>
        </mxCell>
        <mxCell id="7pnBDtsKowcjeVla5i2d-25" value="companyName&lt;br&gt;workType&lt;br&gt;applicantNum&lt;br&gt;dueDate&lt;br&gt;ApplicantNum" style="text;html=1;align=left;verticalAlign=middle;resizable=0;points=[];autosize=1;strokeColor=none;fillColor=none;fontSize=11;" parent="7pnBDtsKowcjeVla5i2d-21" vertex="1">
          <mxGeometry y="35" width="100" height="80" as="geometry" />
        </mxCell>
        <mxCell id="7pnBDtsKowcjeVla5i2d-32" value="" style="group" parent="WIyWlLk6GJQsqaUBKTNV-1" vertex="1" connectable="0">
          <mxGeometry x="320" y="200" width="200" height="300" as="geometry" />
        </mxCell>
        <mxCell id="7pnBDtsKowcjeVla5i2d-33" value="" style="group" parent="7pnBDtsKowcjeVla5i2d-32" vertex="1" connectable="0">
          <mxGeometry width="200" height="300.00000000000006" as="geometry" />
        </mxCell>
        <mxCell id="7pnBDtsKowcjeVla5i2d-34" value="&amp;lt;&amp;lt;entity&amp;gt;&amp;gt;&lt;br&gt;Application" style="swimlane;whiteSpace=wrap;html=1;swimlaneLine=1;startSize=40;" parent="7pnBDtsKowcjeVla5i2d-33" vertex="1">
          <mxGeometry y="10" width="200" height="130" as="geometry">
            <mxRectangle x="100" y="100" width="140" height="40" as="alternateBounds" />
          </mxGeometry>
        </mxCell>
        <mxCell id="7pnBDtsKowcjeVla5i2d-36" value="" style="endArrow=none;html=1;rounded=0;fontSize=11;" parent="7pnBDtsKowcjeVla5i2d-34" edge="1">
          <mxGeometry width="50" height="50" relative="1" as="geometry">
            <mxPoint y="110" as="sourcePoint" />
            <mxPoint x="200" y="110" as="targetPoint" />
          </mxGeometry>
        </mxCell>
        <mxCell id="7pnBDtsKowcjeVla5i2d-37" value="hireInfo" style="text;html=1;align=left;verticalAlign=middle;resizable=0;points=[];autosize=1;strokeColor=none;fillColor=none;fontSize=11;" parent="7pnBDtsKowcjeVla5i2d-34" vertex="1">
          <mxGeometry y="60" width="60" height="30" as="geometry" />
        </mxCell>
        <mxCell id="7pnBDtsKowcjeVla5i2d-39" value="" style="endArrow=none;html=1;rounded=0;fontSize=11;" parent="WIyWlLk6GJQsqaUBKTNV-1" edge="1">
          <mxGeometry width="50" height="50" relative="1" as="geometry">
            <mxPoint x="320" y="280" as="sourcePoint" />
            <mxPoint x="240" y="280" as="targetPoint" />
          </mxGeometry>
        </mxCell>
        <mxCell id="7pnBDtsKowcjeVla5i2d-48" value="â—€&lt;br&gt;Applies" style="text;html=1;align=center;verticalAlign=middle;resizable=0;points=[];autosize=1;strokeColor=none;fillColor=none;fontSize=11;" parent="WIyWlLk6GJQsqaUBKTNV-1" vertex="1">
          <mxGeometry x="250" y="280" width="60" height="40" as="geometry" />
        </mxCell>
        <mxCell id="gfX60H7u6HvzN_qSH2ks-0" value="1" style="text;html=1;strokeColor=none;fillColor=none;align=center;verticalAlign=middle;whiteSpace=wrap;rounded=0;" vertex="1" parent="WIyWlLk6GJQsqaUBKTNV-1">
          <mxGeometry x="240" y="250" width="20" height="30" as="geometry" />
        </mxCell>
        <mxCell id="gfX60H7u6HvzN_qSH2ks-1" value="0...*" style="text;html=1;strokeColor=none;fillColor=none;align=center;verticalAlign=middle;whiteSpace=wrap;rounded=0;" vertex="1" parent="WIyWlLk6GJQsqaUBKTNV-1">
          <mxGeometry x="280" y="250" width="40" height="30" as="geometry" />
        </mxCell>
      </root>
    </mxGraphModel>
  </diagram>
</mxfile>
